[
  {
    "available_bonus": 500.0,
    "city_id": null,
    "comment": null,
    "country_id": 2,
    "created_at": {
      "$date": "2020-04-29T08:12:14.000Z"
    },
    "direction_distance_len": 1898,
    "direction_duration_ts": 1472,
    "direction_map_url": "https://maps.googleapis.com/maps/api/staticmap?size=600x300&maptype=roadmap&key=AIzaSyDpI6RO34VgK_tHZN9V6gUjahiABc3_A8s&path=color%3A0x000000%7Cweight%3A5%7Cenc%3AerltFeaxnGzA%7E%40pAwDnKvJr%40l%40Td%40hEbE%7C%40z%40BHDXGZ%7D%40hBK%5CDhBSlIg%40rNSpKUtJO%7CIU%7CIIrFW%7EJAxBH%60AnB%60GrB%7CGlCzIvDzLbCnIxGfTxDhMLZ%5Ed%40%7CAl%40bB%7C%40%7ECnAr%40d%40zElBx%40d%40%7E%40nBvMdXrKnTxAvCbAtBvCbGtEbJpDtH%60DvGBPE%5EM%5CuEzEwF%7EFg%40d%40m%40%7C%40KXCXFjBbAn%5Dx%40nWPbHF%7EA%3FXTHl%40d%40XFLBfCJ%7EAFV%40bNj%40l%40FlAXhEbAtGzAh%40JQtAcAtIi%40rE_CdT%7BDd%5DnD%60ApCl%40%7CD%7C%40jCr%40%7CEtAdEbB%60%40_E&markers=icon:https://api-tada.helix.am/img/point_from_orange.png%7C40.21046383874531,44.52890083193778&markers=icon:https://api-tada.helix.am/img/point_to_green.png%7C40.1799127,44.4480574",
    "driver_guid": "9373F48B-C6B4-4812-A2D0-413F3AFBAD5Q-driver",
    "entrance": null,
    "expired_at": {
      "$date": "2025-04-29T09:12:14.000Z"
    },
    "final_price": 7024.44,
    "id": 65916,
    "initial_price": 1111.59,
    "near_drivers": null,
    "offer_cancel_reason_id": 30,
    "offer_cancel_reason_text": "asdasd",
    "offer_finish_time": null,
    "offer_guid": "9373F48B-C6B4-4812-A2D0-413F3AFBAD5F",
    "offer_status": "DRIVER_CANCELLED",
    "passenger_seen_complete_screen": "0",
    "payment_method_id": 3,
    "point_a": "2 Nikoghayos Adonts St, Yerevan 0014, Armenia",
    "point_a_lat": 40.2104517,
    "point_a_long": 44.5288845,
    "point_b": "Ohanov St, Yerevan, Armenia",
    "point_b_lat": 40.210463838745,
    "point_b_long": 44.528900831938,
    "points_data": null,
    "price_sequence": 1,
    "start_point": [
      40.2104517,
      44.5288845
    ],
    "trip_estimated_duration": "~24 min",
    "updated_at": {
      "$date": "2020-04-29T08:15:08.000Z"
    },
    "used_bonus": 500.0,
    "user_guid": "9373F48B-C6B4-4812-A2D0-413F3AFBAD5B",
    "vehicle_id": null,
    "zone_id": 0
  },
  {
    "available_bonus": 500.0,
    "city_id": null,
    "comment": null,
    "country_id": 2,
    "created_at": {
      "$date": "2020-04-29T08:12:14.000Z"
    },
    "direction_distance_len": 1898,
    "direction_duration_ts": 1472,
    "direction_map_url": "https://maps.googleapis.com/maps/api/staticmap?size=600x300&maptype=roadmap&key=AIzaSyDpI6RO34VgK_tHZN9V6gUjahiABc3_A8s&path=color%3A0x000000%7Cweight%3A5%7Cenc%3AerltFeaxnGzA%7E%40pAwDnKvJr%40l%40Td%40hEbE%7C%40z%40BHDXGZ%7D%40hBK%5CDhBSlIg%40rNSpKUtJO%7CIU%7CIIrFW%7EJAxBH%60AnB%60GrB%7CGlCzIvDzLbCnIxGfTxDhMLZ%5Ed%40%7CAl%40bB%7C%40%7ECnAr%40d%40zElBx%40d%40%7E%40nBvMdXrKnTxAvCbAtBvCbGtEbJpDtH%60DvGBPE%5EM%5CuEzEwF%7EFg%40d%40m%40%7C%40KXCXFjBbAn%5Dx%40nWPbHF%7EA%3FXTHl%40d%40XFLBfCJ%7EAFV%40bNj%40l%40FlAXhEbAtGzAh%40JQtAcAtIi%40rE_CdT%7BDd%5DnD%60ApCl%40%7CD%7C%40jCr%40%7CEtAdEbB%60%40_E&markers=icon:https://api-tada.helix.am/img/point_from_orange.png%7C40.21046383874531,44.52890083193778&markers=icon:https://api-tada.helix.am/img/point_to_green.png%7C40.1799127,44.4480574",
    "driver_guid": "9373F48B-C6B4-4812-A2D0-413F3AFBAD5G-driver",
    "entrance": null,
    "expired_at": {
      "$date": "2025-04-29T09:12:14.000Z"
    },
    "final_price": 7024.44,
    "id": 65916,
    "initial_price": 1111.59,
    "near_drivers": null,
    "offer_cancel_reason_id": 30,
    "offer_cancel_reason_text": "asdasd",
    "offer_finish_time": null,
    "offer_guid": "9373F48B-C6B4-4812-A2D0-413F3AFBAD5F",
    "offer_status": "TRANSPORTING",
    "passenger_seen_complete_screen": "0",
    "payment_method_id": 3,
    "point_a": "2 Nikoghayos Adonts St, Yerevan 0014, Armenia",
    "point_a_lat": 40.2104517,
    "point_a_long": 44.5288845,
    "point_b": "Ohanov St, Yerevan, Armenia",
    "point_b_lat": 40.210463838745,
    "point_b_long": 44.528900831938,
    "points_data": null,
    "price_sequence": 1,
    "start_point": [
      40.2104517,
      44.5288845
    ],
    "trip_estimated_duration": "~24 min",
    "updated_at": {
      "$date": "2020-04-29T08:15:08.000Z"
    },
    "used_bonus": 500.0,
    "user_guid": "9373F48B-C6B4-4812-A2D0-413F3AFBAD5E",
    "vehicle_id": null,
    "zone_id": 0
  },
  {
    "available_bonus": 500.0,
    "city_id": null,
    "comment": null,
    "country_id": 2,
    "created_at": {
      "$date": "2020-04-29T08:12:14.000Z"
    },
    "direction_distance_len": 1898,
    "direction_duration_ts": 1472,
    "direction_map_url": "https://maps.googleapis.com/maps/api/staticmap?size=600x300&maptype=roadmap&key=AIzaSyDpI6RO34VgK_tHZN9V6gUjahiABc3_A8s&path=color%3A0x000000%7Cweight%3A5%7Cenc%3AerltFeaxnGzA%7E%40pAwDnKvJr%40l%40Td%40hEbE%7C%40z%40BHDXGZ%7D%40hBK%5CDhBSlIg%40rNSpKUtJO%7CIU%7CIIrFW%7EJAxBH%60AnB%60GrB%7CGlCzIvDzLbCnIxGfTxDhMLZ%5Ed%40%7CAl%40bB%7C%40%7ECnAr%40d%40zElBx%40d%40%7E%40nBvMdXrKnTxAvCbAtBvCbGtEbJpDtH%60DvGBPE%5EM%5CuEzEwF%7EFg%40d%40m%40%7C%40KXCXFjBbAn%5Dx%40nWPbHF%7EA%3FXTHl%40d%40XFLBfCJ%7EAFV%40bNj%40l%40FlAXhEbAtGzAh%40JQtAcAtIi%40rE_CdT%7BDd%5DnD%60ApCl%40%7CD%7C%40jCr%40%7CEtAdEbB%60%40_E&markers=icon:https://api-tada.helix.am/img/point_from_orange.png%7C40.21046383874531,44.52890083193778&markers=icon:https://api-tada.helix.am/img/point_to_green.png%7C40.1799127,44.4480574",
    "entrance": null,
    "expired_at": {
      "$date": "2025-04-29T09:12:14.000Z"
    },
    "final_price": 7024.44,
    "id": 65916,
    "initial_price": 1111.59,
    "near_drivers": null,
    "offer_cancel_reason_id": 30,
    "offer_cancel_reason_text": "asdasd",
    "offer_finish_time": null,
    "offer_guid": "9373F48B-C6B4-4812-A2D0-413F3AFBAD5F",
    "offer_status": "PENDING",
    "passenger_seen_complete_screen": "0",
    "payment_method_id": 3,
    "point_a": "2 Nikoghayos Adonts St, Yerevan 0014, Armenia",
    "point_a_lat": 40.2104517,
    "point_a_long": 44.5288845,
    "point_b": "Ohanov St, Yerevan, Armenia",
    "point_b_lat": 40.210463838745,
    "point_b_long": 44.528900831938,
    "points_data": null,
    "price_sequence": 1,
    "start_point": [
      40.2104517,
      44.5288845
    ],
    "trip_estimated_duration": "~24 min",
    "updated_at": {
      "$date": "2020-04-29T08:15:08.000Z"
    },
    "used_bonus": 500.0,
    "user_guid": "9373F48B-C6B4-4812-A2D0-413F3AFBAD4Z",
    "vehicle_id": null,
    "zone_id": 0
  }
]
